<?xml version="1.0" encoding="utf-8"?>
<!-- Generator: Adobe Illustrator 25.2.1, SVG Export Plug-In . SVG Version: 6.00 Build 0)  -->
<svg version="1.1" id="Layer_1" xmlns="http://www.w3.org/2000/svg" xmlns:xlink="http://www.w3.org/1999/xlink" x="0px" y="0px"
	 width="19px" height="19px" viewBox="0 0 19 19" style="enable-background:new 0 0 19 19;" xml:space="preserve">
<style type="text/css">
	.st0{fill:#322E2F;}
</style>
<path class="st0" d="M18,0H1C0.5,0,0,0.5,0,1V18c0,0.6,0.5,1,1,1h9.1v-7.4H7.7V8.8h2.5V6.7c0-2.5,1.5-3.8,3.7-3.8c1,0,2,0.1,2.2,0.1
	v2.6l-1.5,0c-1.2,0-1.4,0.6-1.4,1.4v1.8h2.8l-0.4,2.9h-2.5V19H18c0.6,0,1-0.5,1-1V1C19,0.5,18.5,0,18,0z"/>
</svg>
