<svg width="20" height="19" viewBox="0 0 20 19" fill="none" xmlns="http://www.w3.org/2000/svg">
<path d="M10.2002 1.71175C12.7368 1.71175 13.0372 1.7214 14.039 1.76711C14.9652 1.80938 15.4682 1.96414 15.803 2.0942C16.2464 2.26654 16.5629 2.47244 16.8953 2.80486C17.2278 3.13727 17.4337 3.45377 17.606 3.89717C17.7361 4.23196 17.8908 4.73498 17.9331 5.66118C17.9788 6.66296 17.9884 6.9634 17.9884 9.50002C17.9884 12.0366 17.9788 12.3371 17.9331 13.3388C17.8908 14.2651 17.7361 14.7681 17.606 15.1029C17.4337 15.5463 17.2278 15.8628 16.8953 16.1952C16.5629 16.5276 16.2464 16.7335 15.803 16.9058C15.4682 17.0359 14.9652 17.1907 14.039 17.2329C13.0374 17.2786 12.7369 17.2883 10.2002 17.2883C7.6634 17.2883 7.36297 17.2786 6.36138 17.2329C5.43514 17.1907 4.93212 17.0359 4.59737 16.9058C4.15393 16.7335 3.83743 16.5276 3.50501 16.1952C3.1726 15.8628 2.9667 15.5463 2.7944 15.1029C2.6643 14.7681 2.50954 14.2651 2.46726 13.3389C2.42156 12.3371 2.4119 12.0366 2.4119 9.50002C2.4119 6.9634 2.42156 6.66296 2.46726 5.66122C2.50954 4.73498 2.6643 4.23196 2.7944 3.89717C2.9667 3.45377 3.1726 3.13727 3.50501 2.80486C3.83743 2.47244 4.15393 2.26654 4.59737 2.0942C4.93212 1.96414 5.43514 1.80938 6.36134 1.76711C7.36312 1.7214 7.66356 1.71175 10.2002 1.71175ZM10.2002 0C7.62011 0 7.29663 0.010936 6.28336 0.0571688C5.27216 0.103326 4.5816 0.263897 3.9773 0.498757C3.35259 0.741536 2.8228 1.06637 2.29466 1.5945C1.76653 2.12264 1.44169 2.65243 1.19891 3.27714C0.964054 3.88145 0.803484 4.572 0.757326 5.5832C0.711094 6.59644 0.700195 6.91996 0.700195 9.50002C0.700195 12.0801 0.711094 12.4036 0.757326 13.4168C0.803484 14.428 0.964054 15.1186 1.19891 15.7229C1.44169 16.3476 1.76653 16.8774 2.29466 17.4055C2.8228 17.9337 3.35259 18.2585 3.9773 18.5013C4.5816 18.7361 5.27216 18.8967 6.28336 18.9429C7.29663 18.9891 7.62011 19 10.2002 19C12.7802 19 13.1038 18.9891 14.117 18.9429C15.1282 18.8967 15.8187 18.7361 16.4231 18.5013C17.0478 18.2585 17.5776 17.9337 18.1057 17.4055C18.6338 16.8774 18.9587 16.3476 19.2014 15.7229C19.4363 15.1186 19.5969 14.428 19.643 13.4168C19.6893 12.4036 19.7002 12.0801 19.7002 9.50002C19.7002 6.91996 19.6893 6.59644 19.643 5.5832C19.5969 4.572 19.4363 3.88145 19.2014 3.27714C18.9587 2.65243 18.6338 2.12264 18.1057 1.5945C17.5776 1.06637 17.0478 0.741536 16.4231 0.498757C15.8187 0.263897 15.1282 0.103326 14.117 0.0571688C13.1038 0.010936 12.7802 0 10.2002 0ZM10.2002 4.62162C7.50593 4.62162 5.32178 6.80577 5.32178 9.50002C5.32178 12.1943 7.50593 14.3784 10.2002 14.3784C12.8944 14.3784 15.0786 12.1943 15.0786 9.50002C15.0786 6.80577 12.8944 4.62162 10.2002 4.62162ZM10.2002 12.6667C8.45129 12.6667 7.03349 11.2489 7.03349 9.50002C7.03349 7.75113 8.45129 6.33333 10.2002 6.33333C11.9491 6.33333 13.3669 7.75113 13.3669 9.50002C13.3669 11.2489 11.9491 12.6667 10.2002 12.6667ZM16.4113 4.42889C16.4113 5.0585 15.9009 5.56891 15.2713 5.56891C14.6417 5.56891 14.1313 5.0585 14.1313 4.42889C14.1313 3.79928 14.6417 3.2889 15.2713 3.2889C15.9009 3.2889 16.4113 3.79928 16.4113 4.42889Z" fill="#EDEAE0"/>
</svg>
