<?xml version="1.0" encoding="utf-8"?>
<!-- Generator: Adobe Illustrator 25.2.1, SVG Export Plug-In . SVG Version: 6.00 Build 0)  -->
<svg version="1.1" id="Layer_1" xmlns="http://www.w3.org/2000/svg" xmlns:xlink="http://www.w3.org/1999/xlink" x="0px" y="0px"
	 width="20px" height="19px" viewBox="0 0 20 19" style="enable-background:new 0 0 20 19;" xml:space="preserve">
<style type="text/css">
	.st0{fill:#322E2F;}
</style>
<path class="st0" d="M10.2,1.7c2.5,0,2.8,0,3.8,0.1c0.9,0,1.4,0.2,1.8,0.3c0.4,0.2,0.8,0.4,1.1,0.7c0.3,0.3,0.5,0.6,0.7,1.1
	c0.1,0.3,0.3,0.8,0.3,1.8C18,6.7,18,7,18,9.5c0,2.5,0,2.8-0.1,3.8c0,0.9-0.2,1.4-0.3,1.8c-0.2,0.4-0.4,0.8-0.7,1.1
	c-0.3,0.3-0.6,0.5-1.1,0.7C15.5,17,15,17.2,14,17.2c-1,0-1.3,0.1-3.8,0.1c-2.5,0-2.8,0-3.8-0.1c-0.9,0-1.4-0.2-1.8-0.3
	c-0.4-0.2-0.8-0.4-1.1-0.7c-0.3-0.3-0.5-0.6-0.7-1.1c-0.1-0.3-0.3-0.8-0.3-1.8c0-1-0.1-1.3-0.1-3.8c0-2.5,0-2.8,0.1-3.8
	c0-0.9,0.2-1.4,0.3-1.8C3,3.5,3.2,3.1,3.5,2.8c0.3-0.3,0.6-0.5,1.1-0.7C4.9,2,5.4,1.8,6.4,1.8C7.4,1.7,7.7,1.7,10.2,1.7z M10.2,0
	C7.6,0,7.3,0,6.3,0.1c-1,0-1.7,0.2-2.3,0.4C3.4,0.7,2.8,1.1,2.3,1.6C1.8,2.1,1.4,2.7,1.2,3.3C1,3.9,0.8,4.6,0.8,5.6
	c0,1-0.1,1.3-0.1,3.9c0,2.6,0,2.9,0.1,3.9c0,1,0.2,1.7,0.4,2.3c0.2,0.6,0.6,1.2,1.1,1.7c0.5,0.5,1.1,0.9,1.7,1.1
	c0.6,0.2,1.3,0.4,2.3,0.4c1,0,1.3,0.1,3.9,0.1c2.6,0,2.9,0,3.9-0.1c1,0,1.7-0.2,2.3-0.4c0.6-0.2,1.2-0.6,1.7-1.1
	c0.5-0.5,0.9-1.1,1.1-1.7c0.2-0.6,0.4-1.3,0.4-2.3c0-1,0.1-1.3,0.1-3.9c0-2.6,0-2.9-0.1-3.9c0-1-0.2-1.7-0.4-2.3
	c-0.2-0.6-0.6-1.2-1.1-1.7c-0.5-0.5-1.1-0.9-1.7-1.1c-0.6-0.2-1.3-0.4-2.3-0.4C13.1,0,12.8,0,10.2,0z M10.2,4.6
	c-2.7,0-4.9,2.2-4.9,4.9c0,2.7,2.2,4.9,4.9,4.9c2.7,0,4.9-2.2,4.9-4.9C15.1,6.8,12.9,4.6,10.2,4.6z M10.2,12.7
	C8.5,12.7,7,11.2,7,9.5c0-1.7,1.4-3.2,3.2-3.2c1.7,0,3.2,1.4,3.2,3.2C13.4,11.2,11.9,12.7,10.2,12.7z M16.4,4.4
	c0,0.6-0.5,1.1-1.1,1.1c-0.6,0-1.1-0.5-1.1-1.1c0-0.6,0.5-1.1,1.1-1.1C15.9,3.3,16.4,3.8,16.4,4.4z"/>
</svg>
